<?xml version="1.0" encoding="utf-8"?>
<!-- Generator: Adobe Illustrator 14.0.0, SVG Export Plug-In . SVG Version: 6.00 Build 43363)  -->
<!DOCTYPE svg PUBLIC "-//W3C//DTD SVG 1.1//EN" "http://www.w3.org/Graphics/SVG/1.1/DTD/svg11.dtd">
<svg version="1.1" id="Layer_1" xmlns="http://www.w3.org/2000/svg" xmlns:xlink="http://www.w3.org/1999/xlink" x="0px" y="0px"
	 width="20px" height="40px" viewBox="0 0 20 40" enable-background="new 0 0 20 40" xml:space="preserve">
<g opacity="0.6">
	<g id="XMLID_1_">
		<g>
			<polygon fill="#3CAAC8" points="20,17.5 17.5,20 10,12.5 2.5,20 0,17.5 7.51,10 7.5,9.99 0,2.5 2.5,0 10,7.5 17.5,0 20,2.5 
				12.5,9.99 12.49,10 			"/>
		</g>
		<g>
		</g>
	</g>
</g>
<g>
	<g>
		<polygon fill="#3CAAC8" points="12.498,30.007 12.492,30.002 12.5,29.994 12.5,29.994 20,22.499 17.5,20 10.001,27.496 2.502,20 
			0.003,22.499 7.502,29.994 7.502,29.994 7.507,29.999 0,37.501 2.5,40 9.999,32.505 17.498,40 19.997,37.501 		"/>
	</g>
</g>
</svg>
